<svg xmlns="http://www.w3.org/2000/svg" width="50" height="40.323" viewBox="0 0 50 40.323">
  <g id="noun_Browser_cloud_1393511" data-name="noun_Browser cloud_1393511" transform="translate(0 58.779)">
    <g id="Group_1" data-name="Group 1" transform="translate(0 -58.779)">
      <path id="Path_1" data-name="Path 1" d="M4.055,0H45.991a4.044,4.044,0,0,1,2.857,1.2A4.119,4.119,0,0,1,50,4.055V36.313a3.936,3.936,0,0,1-4.009,4.009H4.055A4.119,4.119,0,0,1,1.2,39.171,4.044,4.044,0,0,1,0,36.313V4.055A3.963,3.963,0,0,1,1.2,1.2,3.963,3.963,0,0,1,4.055,0Zm16.59,29.862a4.339,4.339,0,0,1-3.226-1.475,5.091,5.091,0,0,1,0-6.774,4.611,4.611,0,0,1,2.719-1.429,6.093,6.093,0,0,1,1.982-2.212,5.587,5.587,0,0,1,3.226-1.014,5.861,5.861,0,0,1,3.963,1.567l.046.046A7.294,7.294,0,0,1,31.2,21.935a3.625,3.625,0,0,1,1.751,1.244,3.966,3.966,0,0,1,.922,2.627,4.356,4.356,0,0,1-1.06,2.857,3.728,3.728,0,0,1-2.719,1.2H20.645Zm-2.028-2.535a2.792,2.792,0,0,0,2.028.922h9.447a2.055,2.055,0,0,0,1.521-.691,2.562,2.562,0,0,0,.645-1.751,2.447,2.447,0,0,0-.553-1.613,2.223,2.223,0,0,0-1.336-.783.784.784,0,0,1-.691-.691,4.97,4.97,0,0,0-1.429-2.949l-.046-.046A4.213,4.213,0,0,0,23,19.263h0a5.021,5.021,0,0,0-1.613,2.028.865.865,0,0,1-.737.507,2.63,2.63,0,0,0-2.028.922,3.242,3.242,0,0,0-.876,2.3A3.407,3.407,0,0,0,18.618,27.327ZM8.065,3.226a.826.826,0,0,1,.829.829.818.818,0,0,1-.829.783.777.777,0,0,1-.783-.783.788.788,0,0,1,.783-.829Zm-3.226,0a.826.826,0,0,1,.829.829.818.818,0,0,1-.829.783.777.777,0,0,1-.783-.783.788.788,0,0,1,.783-.829ZM11.29,4.839a.818.818,0,0,1-.829-.783.826.826,0,0,1,.829-.829h9.677a.826.826,0,0,1,.829.829.818.818,0,0,1-.829.783ZM1.613,6.452H48.387v-2.4A2.6,2.6,0,0,0,47.7,2.3a2.572,2.572,0,0,0-1.705-.691H4.055A2.6,2.6,0,0,0,2.3,2.3a2.6,2.6,0,0,0-.691,1.751v2.4ZM48.387,8.065H1.613V36.313A2.572,2.572,0,0,0,2.3,38.018a2.6,2.6,0,0,0,1.751.691H45.991a2.361,2.361,0,0,0,2.4-2.4V8.065Z" transform="translate(0 0)" fill="#2f2fa2"/>
    </g>
  </g>
</svg>
