<svg id="Website" xmlns="http://www.w3.org/2000/svg" width="48" height="48.001" viewBox="0 0 48 48.001">
  <path id="designer" d="M39.929,44.067l4.2-4.2,1.261,5.464Zm-14.3-13.734-1.591-1.591L19.26,23.968l-1.591-1.591L7.82,12.528l4.773-4.774L22.442,17.6l1.592,1.591,4.773,4.774L30.4,25.559,42.826,37.988l-4.773,4.774ZM9.853,42.922l-3.77,1.616L3.463,41.918,5.08,38.145,17.668,25.559l4.774,4.774ZM3.039,7.748a1.126,1.126,0,0,1,.007-1.585L6.228,2.98a1.12,1.12,0,0,1,1.585-.007L11,6.162,6.228,10.936ZM37.394,5.834l4.774,4.773L30.4,22.377,25.625,17.6Zm5.969-3.583s-.006,0,0,.007l2.377,2.377c.007.007.007,0,.007,0L42.567,7.822,40.18,5.435ZM46.01,37.988,31.99,23.968l9.352-9.352.877.878a1.126,1.126,0,0,1,0,1.594L37.8,21.5a1.125,1.125,0,1,0,1.591,1.591l4.415-4.413a3.377,3.377,0,0,0,0-4.777l-.878-.878.826-.827,1.591-1.591L44.158,9.414,47.342,6.23a2.249,2.249,0,0,0-.007-3.186L44.958.666A2.245,2.245,0,0,0,41.772.66L38.588,3.844,37.394,2.65,35.8,4.241h0L24.034,16.011,9.4,1.382a3.369,3.369,0,0,0-4.767.007L1.455,4.571a3.374,3.374,0,0,0-.007,4.767l3.189,3.189.3.3,1.287,1.288,9.849,9.849L3.182,36.863.8,42.432l1.591,1.591L0,46.41,1.591,48l2.386-2.386L5.57,47.205l5.57-2.386L24.034,31.924,36.461,44.353l1.591,1.591L46.2,47.825a1.3,1.3,0,0,0,1.687-1.688Z" fill="#2f2fa2" fill-rule="evenodd"/>
</svg>
