<svg id="Website" xmlns="http://www.w3.org/2000/svg" width="50" height="48" viewBox="0 0 50 48">
  <path id="frontend" d="M47.619,44.392a1.205,1.205,0,0,1-1.2,1.208H3.576a1.2,1.2,0,0,1-1.2-1.208V12H47.619V44.392ZM3.576,2.4H46.424a1.2,1.2,0,0,1,1.194,1.2s0,0,0,.008V9.6H2.381V3.608s0-.006,0-.008A1.2,1.2,0,0,1,3.576,2.4ZM46.424,0A3.589,3.589,0,0,1,50,3.6s0,.006,0,.008h0V44.392A3.6,3.6,0,0,1,46.424,48H3.576A3.59,3.59,0,0,1,0,44.392H0V3.6H0A3.6,3.6,0,0,1,2.381.222,3.5,3.5,0,0,1,3.576,0H46.424ZM27.381,17.032a1.165,1.165,0,0,0-.443.53L26.769,18,22.751,28.347,19.13,37.678a1.2,1.2,0,0,0,.675,1.554,1.189,1.189,0,0,0,1.543-.679l1.4-3.619,4.63-11.927,1.774-4.57a1.226,1.226,0,0,0-.674-1.555A1.161,1.161,0,0,0,27.381,17.032Zm-12.614,3.72L13.1,22.436,8.88,26.684a1.205,1.205,0,0,0,0,1.7L13.1,32.63l1.671,1.686a1.185,1.185,0,0,0,1.683,0,1.205,1.205,0,0,0,0-1.7L13.1,29.237l-1.69-1.7,1.69-1.7,3.355-3.382a1.205,1.205,0,0,0,0-1.7A1.182,1.182,0,0,0,14.767,20.751Zm18.915,0a1.205,1.205,0,0,0,0,1.7l1.508,1.52,3.536,3.564L35.19,31.1l-1.508,1.52a1.205,1.205,0,0,0,0,1.7,1.167,1.167,0,0,0,1.508.116,1.083,1.083,0,0,0,.175-.116l5.887-5.935a1.205,1.205,0,0,0,0-1.7l-5.887-5.933a1.277,1.277,0,0,0-.175-.118A1.167,1.167,0,0,0,33.682,20.751ZM5.952,4.8A1.2,1.2,0,1,0,7.143,6,1.194,1.194,0,0,0,5.952,4.8Zm3.571,0A1.2,1.2,0,1,0,10.714,6,1.194,1.194,0,0,0,9.524,4.8Zm3.571,0A1.2,1.2,0,1,0,14.286,6,1.194,1.194,0,0,0,13.1,4.8Z" fill="#2f2fa2" fill-rule="evenodd"/>
</svg>
